<svg width="167" height="42" viewBox="0 0 167 42" fill="none" xmlns="http://www.w3.org/2000/svg">
<path d="M27.3431 1.27573L4.1768 19.8847V1.27573H0V40.7243H4.1768V25.3238L11.9412 19.0826L28.5067 40.7243H33.8172L15.2304 16.4471L34.1155 1.27573H27.3431Z" fill="#BFBDB0"/>
<path d="M124.633 40.7319V1.29102H133.188L145.472 40.6402L157.756 1.29102H166.289V40.7319H162.112V1.38269L149.828 40.7319H145.502H141.116L128.817 1.33685V40.7319H124.633Z" fill="#BFBDB0"/>
<path d="M78.3669 0C74.3117 0 70.3475 1.23161 66.9757 3.53912C63.6039 5.84663 60.9759 9.1264 59.424 12.9636C57.8722 16.8009 57.4661 21.0233 58.2573 25.0969C59.0484 29.1705 61.0012 32.9123 63.8687 35.8492C66.7362 38.7861 70.3895 40.7862 74.3668 41.5965C78.3442 42.4068 82.4667 41.9909 86.2132 40.4015C89.9598 38.812 93.162 36.1204 95.415 32.667C97.668 29.2136 98.8705 25.1534 98.8705 21C98.8705 15.4304 96.7103 10.089 92.8651 6.15076C89.02 2.21249 83.8048 0 78.3669 0M78.3669 3.98761C81.6621 3.93759 84.8974 4.89271 87.6611 6.73139C90.4248 8.57007 92.592 11.2092 93.8871 14.3131C95.1821 17.417 95.5464 20.8452 94.9336 24.1617C94.3207 27.4782 92.7585 30.533 90.4456 32.9376C88.1327 35.3421 85.1737 36.9876 81.9451 37.6647C78.7164 38.3418 75.3642 38.0199 72.3147 36.7401C69.2652 35.4602 66.6564 33.2801 64.8201 30.4773C62.9838 27.6744 62.0031 24.3754 62.0028 21C61.9769 16.5235 63.6849 12.2192 66.7523 9.03026C69.8197 5.84134 73.9964 4.02797 78.3669 3.98761" fill="#BFBDB0"/>
</svg>
